<svg width="1122" height="118" viewBox="0 0 1122 118" fill="none" xmlns="http://www.w3.org/2000/svg">
<path fill-rule="evenodd" clip-rule="evenodd" d="M0 53.1191L46.75 57.1118C93.5 60.6053 187 67.5925 280.5 67.5925C374 67.5925 467.5 60.6053 561 46.1319C654.5 31.6585 748 10.1979 841.5 3.21069C935 -4.27557 1028.5 3.21069 1075.25 6.70428L1122 10.1979V118H1075.25C1028.5 118 935 118 841.5 118C748 118 654.5 118 561 118C467.5 118 374 118 280.5 118C187 118 93.5 118 46.75 118H0V53.1191Z" fill="#14213D"/>
</svg>
