<svg width="400" height="371" viewBox="0 0 400 371" fill="none" xmlns="http://www.w3.org/2000/svg">
<path d="M342.45 5.97083H220.625V224.828H342.45V5.97083Z" fill="#EBEBEB"/>
<path d="M336.332 12.3142H225.495V218.302H336.332V12.3142Z" fill="#FAFAFA"/>
<path d="M336.332 14.7407L225.495 155.726V12.3142H336.332V14.7407Z" fill="#F5F5F5"/>
<path d="M338.741 71.5715H225.495V73.764H338.741V71.5715Z" fill="#EBEBEB"/>
<path d="M338.741 120.62H225.495V122.813H338.741V120.62Z" fill="#EBEBEB"/>
<path d="M338.741 169.678H225.495V171.871H338.741V169.678Z" fill="#EBEBEB"/>
<path d="M278.114 72.672V224.143H283.712V72.672H278.114Z" fill="#EBEBEB"/>
<path d="M249.378 12.3142H246.839V72.6634H249.378V12.3142Z" fill="#EBEBEB"/>
<path d="M271.251 12.3142H268.712V72.6634H271.251V12.3142Z" fill="#EBEBEB"/>
<path d="M293.132 12.3142H290.593V72.6634H293.132V12.3142Z" fill="#EBEBEB"/>
<path d="M315.014 12.3142H312.475V72.6634H315.014V12.3142Z" fill="#EBEBEB"/>
<path d="M220.625 2.25311H215.469V226.171H220.625V2.25311Z" fill="#F5F5F5"/>
<path d="M347.606 226.795L342.45 224.819V2.25311H347.606V226.795Z" fill="#E0E0E0"/>
<path d="M347.597 0H215.469V5.9708H347.597V0Z" fill="#E0E0E0"/>
<path d="M351.098 227.531H211.82V233.095H351.098V227.531Z" fill="#E0E0E0"/>
<path d="M342.45 224.819L351.09 227.532H211.82L220.625 224.819H342.45Z" fill="#EBEBEB"/>
<path d="M221.032 368.777C235.565 360.05 239.958 342.285 240.53 326.08C240.626 323.376 241.12 320.551 240.002 318.099C238.884 315.646 235.998 313.818 233.502 314.788C231.431 315.586 230.4 317.856 229.169 319.711C227.495 322.177 225.158 324.12 222.427 325.317C220.642 326.089 218.476 326.487 216.846 325.43C214.611 323.992 214.559 320.75 214.758 318.073C215.139 313.075 215.518 308.075 215.893 303.072C216.241 300.401 216.154 297.691 215.633 295.047C214.975 292.448 213.302 289.943 210.798 289.051C208.293 288.158 205.035 289.415 204.307 292.006C204.131 293.11 204.03 294.224 204.004 295.342C203.848 296.451 203.25 297.647 202.166 297.881C201.083 298.115 200.052 297.292 199.307 296.451C196.707 293.548 195.086 289.926 193.57 286.33C192.053 282.733 190.589 279.068 188.284 275.931C185.979 272.793 182.66 270.211 178.829 269.726C174.999 269.24 170.744 271.338 169.513 275.038C168.283 278.738 170.215 282.751 172.408 285.974C175.653 290.769 179.577 295.069 184.055 298.739C184.939 299.308 185.617 300.147 185.987 301.131C186.447 302.959 184.627 304.597 182.824 305.083C180.77 305.611 178.621 305.256 176.507 305.351C174.392 305.447 172.07 306.218 171.143 308.142C169.851 310.811 171.948 313.844 174.072 315.889C178.332 319.973 183.262 323.294 188.648 325.707C190.58 326.574 192.608 327.345 194.107 328.836C195.606 330.326 196.395 332.813 195.303 334.642C194.211 336.47 191.698 336.895 189.653 336.375C187.608 335.855 185.84 334.599 183.925 333.715C180.328 332.068 175.554 331.981 172.971 335.015C172.175 336.061 171.632 337.278 171.384 338.569C171.135 339.86 171.189 341.191 171.541 342.458C172.266 344.989 173.495 347.348 175.155 349.391C180.511 356.822 187.745 362.696 196.118 366.411C204.463 369.964 212.34 371.316 221.058 368.794" fill="#F5F5F5"/>
<path d="M218.398 369.557C218.25 363.109 219.386 366.68 217.531 358.36C215.46 349.368 212.874 340.503 209.784 331.808C208.969 329.497 208.172 327.209 207.392 324.945C206.603 322.7 205.815 320.473 204.922 318.341C203.184 314.246 201.219 310.251 199.038 306.374C196.984 302.656 194.904 299.207 192.972 295.975C191.039 292.742 189.098 289.805 187.244 287.187C184.353 283.034 181.133 279.119 177.616 275.48C176.377 274.189 175.38 273.227 174.696 272.577L173.916 271.849C173.83 271.763 173.737 271.685 173.638 271.615C173.71 271.713 173.791 271.803 173.881 271.884L174.626 272.646C175.285 273.322 176.255 274.31 177.477 275.619C180.929 279.298 184.098 283.231 186.958 287.387C188.786 289.987 190.667 292.976 192.625 296.191C194.584 299.406 196.646 302.864 198.691 306.59C200.847 310.46 202.791 314.443 204.515 318.523C205.382 320.646 206.179 322.856 206.967 325.109L209.359 331.964C212.449 340.64 215.053 349.481 217.158 358.447C219.004 366.74 217.904 363.135 218.086 369.557" fill="#E0E0E0"/>
<path d="M204.801 318.307C204.96 317.946 205.076 317.568 205.148 317.18C205.338 316.452 205.581 315.386 205.858 314.06C206.43 311.409 207.08 307.734 207.791 303.661C208.501 299.588 209.203 295.94 209.801 293.306C210.104 291.997 210.356 290.931 210.538 290.195C210.654 289.819 210.732 289.433 210.772 289.042C210.59 289.391 210.451 289.761 210.356 290.143C210.113 290.862 209.81 291.876 209.489 293.228C208.796 295.827 208.033 299.51 207.331 303.575C206.629 307.639 206.023 311.209 205.546 313.974C205.321 315.222 205.13 316.279 204.983 317.119C204.879 317.507 204.818 317.905 204.801 318.307Z" fill="#E0E0E0"/>
<path d="M170.744 309.511C171.191 309.643 171.649 309.73 172.113 309.771C172.98 309.909 174.262 310.109 175.831 310.403C178.968 310.958 183.275 311.885 187.963 313.116C192.651 314.346 196.88 315.655 199.896 316.686C201.413 317.189 202.626 317.631 203.466 317.925C203.891 318.109 204.332 318.252 204.784 318.35C204.388 318.109 203.97 317.906 203.536 317.743C202.712 317.388 201.517 316.877 200.009 316.348C197.01 315.23 192.807 313.87 188.084 312.631C184.061 311.559 179.985 310.692 175.874 310.031C174.288 309.788 173.006 309.641 172.113 309.563C171.659 309.502 171.201 309.485 170.744 309.511Z" fill="#E0E0E0"/>
<path d="M217.176 357.693C217.284 357.571 217.375 357.434 217.444 357.286L218.12 356.081C218.701 355.033 219.507 353.482 220.477 351.566C222.41 347.727 224.923 342.346 227.618 336.366C230.313 330.387 232.766 324.979 234.62 321.106L236.83 316.53L237.428 315.282C237.509 315.139 237.568 314.984 237.601 314.823C237.504 314.951 237.417 315.088 237.341 315.23L236.665 316.435C236.076 317.492 235.279 319.035 234.308 320.95C232.367 324.789 229.854 330.179 227.168 336.158C224.481 342.138 222.02 347.537 220.166 351.41L217.947 355.995L217.358 357.242C217.278 357.384 217.216 357.536 217.176 357.693Z" fill="#E0E0E0"/>
<path d="M172.347 339.737C172.483 339.83 172.632 339.903 172.789 339.954L174.089 340.5L178.855 342.441C182.911 344.079 188.483 346.393 194.636 348.967C200.789 351.54 206.387 353.802 210.477 355.353C212.522 356.125 214.177 356.74 215.33 357.139L216.665 357.589C216.817 357.65 216.978 357.691 217.141 357.71C217.004 357.619 216.855 357.547 216.699 357.494L215.399 356.957L210.598 355.024C206.551 353.386 200.979 351.072 194.818 348.499C188.656 345.925 183.076 343.663 178.985 342.112C176.94 341.341 175.285 340.725 174.124 340.335L172.789 339.841C172.647 339.788 172.498 339.753 172.347 339.737Z" fill="#E0E0E0"/>
<path d="M153.048 33.2424H120.283V43.7888H153.048V33.2424Z" fill="#F5F5F5"/>
<path d="M183.777 54.3351H151.012V64.8815H183.777V54.3351Z" fill="#FAFAFA"/>
<path d="M165.484 54.3351C165.477 54.2688 165.477 54.2021 165.484 54.1358V53.5898C165.484 53.0786 165.484 52.3853 165.484 51.5014C165.484 49.6642 165.44 47.0471 165.406 43.7887L165.553 43.9361L133.489 44.014C133.585 43.9101 133.255 44.2394 133.706 43.7887V54.3351L133.481 54.1185L156.324 54.2138L163.057 54.2745H164.868H165.518C165.322 54.2867 165.125 54.2867 164.929 54.2745H163.196L156.523 54.3351L133.463 54.4391H133.247V49.0663C133.247 48.1997 133.247 47.3331 133.247 46.3972V43.8061C133.697 43.3554 133.377 43.6761 133.481 43.5807L165.544 43.6587H165.692V43.8061C165.692 47.1078 165.631 49.7509 165.614 51.6054C165.614 52.4719 165.614 53.1566 165.614 53.6592C165.614 54.1618 165.492 54.3438 165.484 54.3351Z" fill="#E0E0E0"/>
<path d="M388.812 123.272H356.047V133.819H388.812V123.272Z" fill="#FAFAFA"/>
<path d="M399.835 123.004C399.829 122.937 399.829 122.871 399.835 122.804C399.835 122.657 399.835 122.475 399.835 122.258C399.835 121.747 399.835 121.054 399.835 120.17C399.835 118.333 399.792 115.724 399.757 112.457L399.905 112.605L367.841 112.682C367.936 112.579 367.607 112.908 368.058 112.457V122.986L367.832 122.77L390.736 122.865L397.461 122.934H399.281H399.931C399.732 122.947 399.532 122.947 399.333 122.934H397.6L390.927 122.995L367.772 123.194H367.555V117.83C367.555 116.963 367.555 116.054 367.555 115.152V112.449C368.006 111.998 367.685 112.319 367.789 112.223L399.853 112.301H400V112.449C400 115.75 399.939 118.393 399.922 120.248C399.922 121.114 399.922 121.799 399.922 122.302C399.922 122.804 399.835 123.012 399.835 123.004Z" fill="#E0E0E0"/>
<path d="M375.025 242.038H342.259V252.585H375.025V242.038Z" fill="#F5F5F5"/>
<path d="M386.429 252.221H353.663V262.767H386.429V252.221Z" fill="#FAFAFA"/>
<path d="M365.622 273.114C365.615 273.051 365.615 272.987 365.622 272.923V272.369C365.622 271.858 365.622 271.164 365.622 270.28C365.622 268.443 365.579 265.835 365.544 262.568L365.692 262.715L333.628 262.793C333.723 262.698 333.394 263.018 333.845 262.568V273.114L333.619 272.897L356.523 273.001L363.248 273.062H365.068H365.718C365.519 273.073 365.319 273.073 365.12 273.062H363.387L356.714 273.123L333.654 273.227H333.437V267.854C333.437 266.987 333.437 266.077 333.437 265.176V262.472C333.888 262.022 333.567 262.351 333.671 262.247L365.735 262.325H365.882V262.472C365.882 265.774 365.822 268.417 365.804 270.272C365.804 271.138 365.804 271.832 365.804 272.334C365.804 272.837 365.631 273.157 365.622 273.114Z" fill="#E0E0E0"/>
<path d="M44.6293 99.1464H11.8636V109.693H44.6293V99.1464Z" fill="#FAFAFA"/>
<path d="M59.11 99.1464C59.11 99.1464 59.11 99.0684 59.11 98.9471C59.11 98.8258 59.11 98.6178 59.11 98.4012C59.11 97.8899 59.11 97.1879 59.11 96.304C59.11 94.4755 59.058 91.8584 59.0234 88.5914L59.1707 88.7387L27.1069 88.8167L27.3322 88.6001V93.9902C27.3322 95.7234 27.3322 97.4566 27.3322 99.1464L27.1156 98.9211L50.0195 99.0251L56.7442 99.0858H58.5641C58.7774 99.066 58.9921 99.066 59.2054 99.0858C59.0091 99.0985 58.8123 99.0985 58.6161 99.0858H56.8829L50.2102 99.1464L27.1589 99.2504H26.9423V99.0338C26.9423 97.3613 26.9423 95.6454 26.9423 93.8776V88.4874C27.3929 88.0281 27.0636 88.3574 27.1676 88.2534L59.2313 88.3314H59.266V88.4787C59.266 91.7804 59.1967 94.4235 59.1794 96.278C59.1794 97.1446 59.1794 97.8292 59.1794 98.3318C59.1868 98.6051 59.1636 98.8784 59.11 99.1464Z" fill="#E0E0E0"/>
<path d="M395.84 370.432C395.84 370.553 307.223 370.657 197.929 370.657C88.6347 370.657 0 370.553 0 370.432C0 370.311 88.6 370.172 197.92 370.172C307.24 370.172 395.84 370.311 395.84 370.432Z" fill="#263238"/>
<path d="M363.889 326.661L362.728 348.117C362.706 348.485 362.545 348.831 362.278 349.085C362.011 349.339 361.658 349.483 361.289 349.487L322.683 349.772C322.299 349.773 321.93 349.622 321.656 349.353C321.383 349.084 321.225 348.718 321.218 348.334L321.097 331.626C321.097 331.242 321.249 330.873 321.52 330.6C321.792 330.327 322.16 330.173 322.544 330.17H346.289C346.672 330.166 347.038 330.014 347.311 329.746L351.41 325.647C351.679 325.376 352.043 325.224 352.424 325.222L362.433 325.153C362.63 325.15 362.825 325.188 363.006 325.263C363.187 325.339 363.351 325.451 363.487 325.592C363.624 325.733 363.73 325.901 363.799 326.085C363.868 326.268 363.899 326.464 363.889 326.661Z" fill="#FCA311"/>
<path opacity="0.3" d="M363.889 326.661L362.728 348.117C362.706 348.485 362.545 348.831 362.278 349.085C362.011 349.339 361.658 349.483 361.289 349.487L322.683 349.772C322.299 349.773 321.93 349.622 321.656 349.353C321.383 349.084 321.225 348.718 321.218 348.334L321.097 331.626C321.097 331.242 321.249 330.873 321.52 330.6C321.792 330.327 322.16 330.173 322.544 330.17H346.289C346.672 330.166 347.038 330.014 347.311 329.746L351.41 325.647C351.679 325.376 352.043 325.224 352.424 325.222L362.433 325.153C362.63 325.15 362.825 325.188 363.006 325.263C363.187 325.339 363.351 325.451 363.487 325.592C363.624 325.733 363.73 325.901 363.799 326.085C363.868 326.268 363.899 326.464 363.889 326.661Z" fill="black"/>
<path d="M321.254 352.854L363.438 352.545L363.253 327.336L321.069 327.645L321.254 352.854Z" fill="#F5F5F5"/>
<path d="M366.628 329.572L363.603 355.882C363.582 356.114 363.477 356.329 363.308 356.489C363.139 356.649 362.917 356.741 362.685 356.748L321.574 357.043C321.336 357.048 321.105 356.96 320.931 356.799C320.756 356.637 320.651 356.414 320.638 356.177L318.376 329.884C318.364 329.757 318.379 329.628 318.419 329.506C318.46 329.384 318.526 329.273 318.612 329.178C318.699 329.083 318.804 329.008 318.922 328.956C319.039 328.905 319.166 328.878 319.295 328.879L365.7 328.532C365.832 328.533 365.962 328.561 366.082 328.615C366.201 328.669 366.309 328.747 366.396 328.845C366.484 328.943 366.549 329.059 366.589 329.184C366.629 329.309 366.642 329.442 366.628 329.572Z" fill="#FCA311"/>
<path d="M375.25 322.614L374.089 344.07C374.067 344.438 373.906 344.784 373.639 345.038C373.372 345.292 373.019 345.436 372.65 345.44L334.044 345.717C333.854 345.719 333.665 345.684 333.489 345.613C333.312 345.543 333.151 345.438 333.015 345.305C332.879 345.172 332.771 345.014 332.696 344.839C332.621 344.665 332.582 344.477 332.579 344.287L332.458 327.579C332.457 327.388 332.494 327.199 332.566 327.023C332.638 326.846 332.744 326.686 332.879 326.55C333.013 326.415 333.173 326.308 333.349 326.234C333.526 326.161 333.714 326.123 333.905 326.123H357.65C358.032 326.125 358.4 325.976 358.672 325.707L362.771 321.608C363.04 321.338 363.404 321.185 363.785 321.184L373.794 321.114C373.99 321.113 374.183 321.151 374.363 321.227C374.543 321.302 374.706 321.413 374.842 321.553C374.978 321.693 375.084 321.86 375.155 322.042C375.225 322.224 375.257 322.418 375.25 322.614Z" fill="#FCA311"/>
<path opacity="0.3" d="M375.25 322.614L374.089 344.07C374.067 344.438 373.906 344.784 373.639 345.038C373.372 345.292 373.019 345.436 372.65 345.44L334.044 345.717C333.854 345.719 333.665 345.684 333.489 345.613C333.312 345.543 333.151 345.438 333.015 345.305C332.879 345.172 332.771 345.014 332.696 344.839C332.621 344.665 332.582 344.477 332.579 344.287L332.458 327.579C332.457 327.388 332.494 327.199 332.566 327.023C332.638 326.846 332.744 326.686 332.879 326.55C333.013 326.415 333.173 326.308 333.349 326.234C333.526 326.161 333.714 326.123 333.905 326.123H357.65C358.032 326.125 358.4 325.976 358.672 325.707L362.771 321.608C363.04 321.338 363.404 321.185 363.785 321.184L373.794 321.114C373.99 321.113 374.183 321.151 374.363 321.227C374.543 321.302 374.706 321.413 374.842 321.553C374.978 321.693 375.084 321.86 375.155 322.042C375.225 322.224 375.257 322.418 375.25 322.614Z" fill="black"/>
<path d="M332.619 348.803L374.803 348.494L374.618 323.286L332.434 323.595L332.619 348.803Z" fill="#F5F5F5"/>
<path d="M377.989 325.525L374.956 351.835C374.942 352.069 374.84 352.29 374.669 352.451C374.498 352.612 374.272 352.702 374.037 352.701L332.926 353.005C332.689 353.008 332.46 352.919 332.285 352.758C332.111 352.597 332.006 352.375 331.99 352.138L329.728 325.863C329.718 325.735 329.733 325.606 329.775 325.484C329.817 325.363 329.883 325.251 329.971 325.157C330.058 325.062 330.164 324.987 330.282 324.935C330.4 324.884 330.527 324.858 330.656 324.858L377.053 324.511C377.182 324.511 377.311 324.537 377.43 324.589C377.549 324.641 377.656 324.717 377.744 324.812C377.832 324.908 377.899 325.02 377.941 325.143C377.983 325.266 377.999 325.396 377.989 325.525Z" fill="#FCA311"/>
<path opacity="0.3" d="M377.989 325.525L374.956 351.835C374.942 352.069 374.84 352.29 374.669 352.451C374.498 352.612 374.272 352.702 374.037 352.701L332.926 353.005C332.689 353.008 332.46 352.919 332.285 352.758C332.111 352.597 332.006 352.375 331.99 352.138L329.728 325.863C329.718 325.735 329.733 325.606 329.775 325.484C329.817 325.363 329.883 325.251 329.971 325.157C330.058 325.062 330.164 324.987 330.282 324.935C330.4 324.884 330.527 324.858 330.656 324.858L377.053 324.511C377.182 324.511 377.311 324.537 377.43 324.589C377.549 324.641 377.656 324.717 377.744 324.812C377.832 324.908 377.899 325.02 377.941 325.143C377.983 325.266 377.999 325.396 377.989 325.525Z" fill="black"/>
<path d="M388.05 327.64L386.888 349.088C386.869 349.457 386.709 349.805 386.442 350.061C386.175 350.317 385.82 350.462 385.45 350.466L346.843 350.743C346.459 350.745 346.089 350.595 345.814 350.326C345.54 350.056 345.383 349.689 345.379 349.305L345.24 332.605C345.24 332.221 345.392 331.852 345.664 331.579C345.935 331.306 346.303 331.152 346.687 331.15H370.432C370.622 331.152 370.811 331.115 370.987 331.042C371.163 330.969 371.322 330.861 371.455 330.725L375.554 326.635C375.822 326.364 376.187 326.212 376.567 326.21L386.577 326.132C386.774 326.128 386.97 326.165 387.153 326.24C387.336 326.315 387.501 326.426 387.639 326.568C387.777 326.709 387.885 326.877 387.955 327.061C388.026 327.246 388.058 327.443 388.05 327.64Z" fill="#FCA311"/>
<path d="M345.408 353.828L387.592 353.519L387.407 328.311L345.223 328.62L345.408 353.828Z" fill="#F5F5F5"/>
<path d="M390.788 330.552L387.764 356.861C387.736 357.086 387.628 357.294 387.459 357.446C387.29 357.597 387.072 357.682 386.845 357.684L345.726 357.988C345.489 357.99 345.261 357.902 345.088 357.74C344.915 357.579 344.812 357.357 344.798 357.121L342.536 330.846C342.524 330.718 342.539 330.589 342.58 330.467C342.62 330.345 342.686 330.232 342.772 330.137C342.859 330.042 342.964 329.965 343.082 329.913C343.199 329.86 343.326 329.833 343.455 329.832L389.852 329.494C389.986 329.493 390.119 329.521 390.241 329.575C390.363 329.63 390.472 329.71 390.561 329.81C390.65 329.91 390.716 330.028 390.755 330.156C390.794 330.284 390.805 330.419 390.788 330.552Z" fill="#FCA311"/>
<path d="M342.528 334.13V370.623H395.182V334.13H342.528ZM359.712 340.708C359.712 339.993 359.996 339.308 360.502 338.802C361.007 338.297 361.693 338.013 362.407 338.013H375.302C375.668 337.992 376.035 338.046 376.38 338.172C376.724 338.298 377.039 338.493 377.306 338.745C377.572 338.996 377.785 339.3 377.93 339.637C378.075 339.974 378.15 340.337 378.15 340.704C378.15 341.07 378.075 341.433 377.93 341.77C377.785 342.107 377.572 342.411 377.306 342.663C377.039 342.914 376.724 343.109 376.38 343.235C376.035 343.361 375.668 343.415 375.302 343.394H362.407C361.694 343.394 361.01 343.112 360.505 342.608C360 342.104 359.715 341.421 359.712 340.708Z" fill="#455A64"/>
<path d="M314.147 334.13V370.623H342.528V334.13H314.147Z" fill="#263238"/>
<path d="M214.897 343.056L212.15 358.906C212.15 358.906 195.121 361.437 194.333 364.314L224.854 370.744L230.149 346.237L214.897 343.056Z" fill="#FCA311"/>
<g opacity="0.6">
<path opacity="0.6" d="M221.864 359.565C222.137 359.717 222.346 359.965 222.449 360.26C222.553 360.555 222.545 360.878 222.427 361.168C222.287 361.449 222.044 361.665 221.749 361.771C221.454 361.878 221.129 361.867 220.841 361.74C220.542 361.579 220.315 361.311 220.206 360.989C220.096 360.668 220.113 360.317 220.252 360.007C220.429 359.724 220.71 359.523 221.035 359.447C221.36 359.37 221.701 359.425 221.985 359.6" fill="white"/>
</g>
<path opacity="0.6" d="M224.854 370.735L225.287 368.248L195.823 363.049C195.823 363.049 194.341 363.352 194.298 364.34L224.854 370.735Z" fill="white"/>
<path d="M211.682 358.646C211.682 358.794 212.392 359.019 213.025 359.652C213.657 360.284 213.891 360.995 214.065 360.96C214.238 360.925 214.169 360.024 213.389 359.27C212.609 358.516 211.682 358.499 211.682 358.646Z" fill="#263238"/>
<path d="M208.207 359.296C208.137 359.426 208.735 359.816 209.073 360.553C209.411 361.289 209.446 361.991 209.602 362.017C209.758 362.043 210.018 361.22 209.541 360.284C209.065 359.348 208.241 359.149 208.207 359.296Z" fill="#263238"/>
<path d="M205.581 362.737C205.711 362.797 206.075 362.104 205.858 361.203C205.641 360.302 204.992 359.834 204.931 359.946C204.87 360.059 205.182 360.587 205.347 361.324C205.511 362.061 205.433 362.693 205.581 362.737Z" fill="#263238"/>
<path d="M212.713 355.102C212.713 355.249 213.475 355.189 214.299 355.423C215.122 355.657 215.737 356.064 215.841 355.951C215.945 355.839 215.425 355.171 214.437 354.911C213.449 354.651 212.652 354.972 212.713 355.102Z" fill="#263238"/>
<path opacity="0.3" d="M214.351 346.202L213.857 349.019L228.892 352.043L229.447 349.521L214.351 346.202Z" fill="black"/>
<path d="M213.328 351.913C213.799 352.155 214.325 352.265 214.853 352.234C215.435 352.25 216.017 352.198 216.587 352.078C216.916 352.004 217.24 351.908 217.557 351.792C217.749 351.736 217.931 351.648 218.094 351.532C218.215 351.447 218.305 351.324 218.349 351.183C218.393 351.042 218.389 350.89 218.337 350.752C218.281 350.633 218.199 350.528 218.097 350.446C217.995 350.363 217.876 350.305 217.748 350.275C217.554 350.236 217.356 350.221 217.158 350.232C216.817 350.243 216.478 350.286 216.145 350.362C215.58 350.481 215.038 350.691 214.541 350.986C213.675 351.497 213.328 352 213.38 352.043C213.432 352.086 213.874 351.714 214.715 351.324C215.198 351.093 215.712 350.929 216.24 350.838C216.549 350.786 216.862 350.757 217.176 350.752C217.514 350.752 217.791 350.795 217.843 350.951C217.895 351.107 217.843 351.038 217.774 351.116C217.652 351.2 217.517 351.264 217.375 351.306C217.092 351.421 216.803 351.52 216.509 351.601C215.983 351.735 215.446 351.819 214.905 351.852C214.379 351.836 213.852 351.856 213.328 351.913Z" fill="#263238"/>
<path d="M213.519 352.173C213.893 351.792 214.142 351.305 214.229 350.778C214.378 350.213 214.428 349.626 214.377 349.045C214.342 348.701 214.275 348.362 214.177 348.031C214.14 347.813 214.045 347.608 213.904 347.438C213.763 347.267 213.579 347.137 213.371 347.06C213.235 347.032 213.094 347.045 212.965 347.095C212.836 347.146 212.724 347.233 212.644 347.346C212.526 347.508 212.433 347.686 212.366 347.875C212.242 348.205 212.169 348.553 212.15 348.906C212.11 349.501 212.221 350.097 212.47 350.639C212.895 351.558 213.484 351.861 213.501 351.818C213.519 351.774 213.112 351.358 212.817 350.5C212.645 350.006 212.583 349.479 212.635 348.958C212.663 348.66 212.736 348.367 212.852 348.091C212.964 347.779 213.146 347.545 213.259 347.597C213.371 347.649 213.614 347.927 213.683 348.213C213.78 348.509 213.849 348.814 213.891 349.123C213.962 349.649 213.962 350.182 213.891 350.708C213.675 351.61 213.397 352.13 213.519 352.173Z" fill="#263238"/>
<path d="M318.601 343.412L311.998 334.789L311.66 334.347L300.394 342.71L310.793 354.149L310.412 365.726C304.615 367.226 303.739 370.12 303.739 370.12H315.794L326.747 349.027L318.601 343.412Z" fill="#FCA311"/>
<path opacity="0.6" d="M326.782 349.019L315.828 370.111L303.774 370.12L305.135 368.309L314.936 367.763L325.04 347.823L326.782 349.019Z" fill="white"/>
<path d="M310.516 360.423C310.611 360.544 311.305 360.146 312.249 360.172C313.194 360.198 313.87 360.587 313.982 360.466C314.095 360.345 313.41 359.652 312.249 359.643C311.088 359.634 310.412 360.328 310.516 360.423Z" fill="#263238"/>
<path d="M310.715 357.546C310.837 357.632 311.365 356.922 312.327 356.731C313.289 356.54 314.06 356.982 314.138 356.861C314.216 356.74 314.043 356.601 313.705 356.419C313.25 356.183 312.728 356.11 312.225 356.211C311.723 356.311 311.27 356.581 310.941 356.974C310.707 357.277 310.655 357.511 310.715 357.546Z" fill="#263238"/>
<path d="M310.629 353.863C310.759 353.923 311.175 353.23 312.015 352.935C312.856 352.641 313.61 352.935 313.67 352.788C313.731 352.641 313.549 352.554 313.211 352.433C312.764 352.28 312.279 352.283 311.834 352.44C311.389 352.597 311.01 352.9 310.759 353.299C310.577 353.611 310.577 353.837 310.629 353.863Z" fill="#263238"/>
<path d="M307.405 351.003C307.544 351.055 307.882 350.37 308.636 349.885C309.389 349.4 310.126 349.322 310.135 349.174C310.143 349.027 309.268 348.828 308.341 349.443C307.414 350.058 307.258 350.986 307.405 351.003Z" fill="#263238"/>
<path d="M305.828 348.507C306.24 348.142 306.594 347.715 306.876 347.242L307.899 345.795C308.13 345.497 308.316 345.167 308.454 344.816C308.491 344.696 308.505 344.57 308.493 344.445C308.481 344.319 308.444 344.198 308.384 344.088C308.315 343.959 308.208 343.854 308.078 343.786C307.949 343.718 307.802 343.69 307.656 343.706C307.233 343.788 306.842 343.989 306.53 344.287C306.248 344.543 306 344.834 305.793 345.154C305.456 345.676 305.243 346.269 305.169 346.887C305.042 347.45 305.138 348.04 305.438 348.533C305.44 348.003 305.471 347.474 305.533 346.947C305.708 346.071 306.175 345.279 306.859 344.703C307.103 344.479 307.402 344.324 307.726 344.252C307.771 344.244 307.817 344.249 307.859 344.268C307.901 344.286 307.936 344.317 307.96 344.356C308.004 344.468 308.004 344.592 307.96 344.703C307.842 345.009 307.688 345.3 307.5 345.569L306.573 347.077C306.252 347.512 306 347.995 305.828 348.507Z" fill="#263238"/>
<path d="M305.377 348.889C305.438 348.889 305.377 348.247 304.736 347.528C304.293 347.046 303.703 346.722 303.059 346.606C302.414 346.49 301.749 346.589 301.166 346.887C301.104 346.938 301.054 347.003 301.021 347.077C300.988 347.151 300.972 347.231 300.975 347.311C300.981 347.451 301.033 347.585 301.122 347.693C301.244 347.844 301.39 347.973 301.556 348.074C301.827 348.264 302.118 348.427 302.422 348.559C302.924 348.789 303.459 348.938 304.008 349.001C304.507 349.115 305.029 349.066 305.499 348.863C305.499 348.776 304.927 348.819 304.069 348.637C303.571 348.529 303.09 348.354 302.639 348.117C302.382 347.981 302.138 347.821 301.911 347.641C301.793 347.569 301.687 347.478 301.599 347.372C301.538 347.268 301.556 347.294 301.599 347.268C301.705 347.202 301.822 347.158 301.946 347.138C302.093 347.102 302.244 347.079 302.396 347.069C302.686 347.044 302.979 347.064 303.263 347.129C303.745 347.236 304.192 347.462 304.563 347.788C305.135 348.369 305.317 348.923 305.377 348.889Z" fill="#263238"/>
<path opacity="0.6" d="M318.593 350.084C319.382 350.084 320.023 349.444 320.023 348.655C320.023 347.865 319.382 347.225 318.593 347.225C317.803 347.225 317.163 347.865 317.163 348.655C317.163 349.444 317.803 350.084 318.593 350.084Z" fill="white"/>
<path opacity="0.3" d="M301.46 343.862L303.774 346.401L313.506 336.756L312.154 334.997L301.46 343.862Z" fill="black"/>
<path d="M242.584 188.648C242.584 188.648 231.319 226.882 221.249 270.107C215.183 296.313 209.42 345.076 209.42 345.076L236.163 350.968L247.628 288.279L259.864 251.172C264.067 239.456 270.107 230.894 277.438 224.55C285.411 213.285 289.571 200.399 287.967 186.681L242.584 188.648Z" fill="#263238"/>
<path d="M240.383 194.74L250.375 277.066C251.345 285.012 252.689 292.664 258.087 298.583L298.548 346.566L318.593 328.576L275.705 269.942L283.158 187.287L241.198 194.445" fill="#263238"/>
<path d="M276.112 269.327C276.19 269.474 274.379 270.376 272.646 272.169C270.913 273.963 270.142 275.818 269.994 275.748C269.847 275.679 270.462 273.66 272.247 271.797C274.033 269.934 276.078 269.188 276.112 269.327Z" fill="#455A64"/>
<path d="M275.506 269.942C275.506 270.098 273.903 270.046 271.979 270.237C270.055 270.428 268.513 270.774 268.452 270.618C269.517 270.037 270.705 269.719 271.918 269.691C273.911 269.492 275.523 269.795 275.506 269.942Z" fill="#455A64"/>
<path d="M286.763 205.381C286.736 205.697 286.687 206.009 286.616 206.317C286.546 206.647 286.477 207.019 286.39 207.453C286.304 207.886 286.122 208.406 285.957 208.969C284.908 212.161 283.414 215.189 281.52 217.964C279.18 221.526 275.931 225.4 272.473 229.785C270.656 232.065 268.977 234.452 267.447 236.934C265.84 239.621 264.379 242.392 263.07 245.236C260.375 251.094 258.2 256.848 256.354 262.126C254.508 267.403 252.975 272.195 251.675 276.225C250.375 280.255 249.352 283.461 248.607 285.758C248.243 286.841 247.948 287.707 247.74 288.357C247.647 288.655 247.532 288.944 247.394 289.224C247.447 288.909 247.525 288.599 247.628 288.297L248.399 285.697L251.293 276.095C252.541 272.057 254.04 267.239 255.86 261.944C257.68 256.649 259.847 250.869 262.55 244.985C263.871 242.123 265.349 239.337 266.979 236.639C268.52 234.139 270.219 231.74 272.066 229.455C275.532 225.07 278.825 221.24 281.182 217.739C283.09 215.009 284.626 212.036 285.749 208.9C285.922 208.337 286.104 207.843 286.226 207.401C286.347 206.959 286.425 206.603 286.503 206.291C286.565 205.982 286.652 205.677 286.763 205.381Z" fill="#455A64"/>
<path d="M190.121 164.877L183.093 168.534L170.9 174.522C170.077 174.807 169.385 175.379 168.95 176.134L164.479 184.003H173.032L175.311 180.164C176.745 180.677 178.303 180.732 179.769 180.323C181.236 179.913 182.54 179.058 183.5 177.876L195.918 173.543L190.121 164.877Z" fill="#FFBE9D"/>
<path d="M271.762 68.2872C272.258 67.2334 273.073 66.3626 274.092 65.7981C275.111 65.2337 276.281 65.0042 277.438 65.1423C278.594 65.2804 279.678 65.779 280.535 66.5674C281.392 67.3559 281.979 68.3942 282.213 69.535C282.291 70.6358 282.486 71.7251 282.794 72.7848C283.121 73.4648 283.67 74.0131 284.351 74.3392C285.031 74.6653 285.803 74.7497 286.538 74.5786C286.1 75.4036 285.423 76.0771 284.596 76.5111C284.702 76.4425 284.823 76.4001 284.948 76.3873C285.074 76.3745 285.201 76.3916 285.318 76.4373C285.436 76.4829 285.541 76.5559 285.625 76.6501C285.709 76.7442 285.769 76.857 285.801 76.979C285.841 77.2336 285.803 77.4943 285.694 77.7275C285.584 77.9607 285.407 78.1558 285.186 78.2876C284.735 78.5392 284.236 78.69 283.721 78.7295C281.251 79.1022 278.522 79.1975 276.442 77.863C274.171 76.3984 273.166 73.6427 272.317 71.0862" fill="#263238"/>
<path d="M248.104 61.1292C245.505 61.3545 243.338 63.2696 241.83 65.4014C240.322 67.5332 239.274 69.977 237.697 72.0568C236.518 73.608 235.019 75.0119 234.438 76.8664C233.511 79.8301 235.14 83.2445 233.849 86.0609C233.112 87.6554 231.57 88.7387 230.807 90.3159C229.854 92.283 230.287 94.6488 230.868 96.7286C231.158 98.2282 231.899 99.6036 232.991 100.672C233.975 101.346 235.108 101.772 236.293 101.911C245.174 103.544 254.343 102.41 262.559 98.6611" fill="#263238"/>
<path d="M268.408 75.9565C268.373 74.1527 267.974 72.3745 267.238 70.7277C266.501 69.0808 265.44 67.5989 264.119 66.3701C262.798 65.1413 261.244 64.1906 259.548 63.5746C257.852 62.9586 256.05 62.6899 254.248 62.7843C247.047 63.1483 241.51 69.3531 241.466 76.5631C241.466 82.8805 241.544 89.2413 241.908 91.5031C242.991 98.3231 247.376 100.403 249.11 100.966C249.725 101.092 250.353 101.153 250.981 101.148C250.994 101.15 251.005 101.157 251.013 101.166C251.021 101.176 251.025 101.188 251.025 101.2L250.652 109.268C250.713 114.468 254.248 118.671 259.491 118.671C264.734 118.671 268.201 114.138 268.235 108.878L268.408 75.9565Z" fill="#FFBE9D"/>
<path d="M244.04 80.0988C244.04 80.3847 244.151 80.6595 244.35 80.865C244.549 81.0704 244.82 81.1903 245.106 81.1993C245.245 81.2111 245.386 81.1947 245.519 81.151C245.651 81.1073 245.774 81.0372 245.879 80.945C245.985 80.8528 246.07 80.7403 246.131 80.6142C246.191 80.4882 246.226 80.3512 246.233 80.2114C246.237 79.9247 246.129 79.6477 245.931 79.4402C245.733 79.2327 245.462 79.1112 245.175 79.1022C245.035 79.0916 244.894 79.1091 244.761 79.1537C244.627 79.1983 244.504 79.2691 244.398 79.3619C244.292 79.4547 244.206 79.5677 244.145 79.6942C244.083 79.8207 244.048 79.9583 244.04 80.0988Z" fill="#263238"/>
<path d="M243.338 78.1836C243.468 78.3309 244.3 77.7156 245.487 77.7156C246.674 77.7156 247.532 78.3049 247.662 78.1663C247.792 78.0276 247.584 77.8456 247.203 77.5683C246.695 77.214 246.089 77.0262 245.47 77.031C244.847 77.0216 244.238 77.2164 243.737 77.5856C243.39 77.863 243.269 78.1316 243.338 78.1836Z" fill="#263238"/>
<path d="M255.6 80.0987C255.596 80.3846 255.704 80.6607 255.902 80.8668C256.1 81.073 256.372 81.1925 256.658 81.1993C256.797 81.2111 256.937 81.1947 257.07 81.151C257.203 81.1073 257.326 81.0372 257.431 80.945C257.536 80.8527 257.622 80.7402 257.682 80.6142C257.743 80.4881 257.778 80.3511 257.784 80.2114C257.789 79.9247 257.681 79.6477 257.483 79.4402C257.285 79.2326 257.013 79.1112 256.727 79.1022C256.587 79.0916 256.447 79.1092 256.314 79.1539C256.181 79.1985 256.058 79.2695 255.953 79.3624C255.848 79.4553 255.763 79.5683 255.702 79.6948C255.641 79.8213 255.607 79.9587 255.6 80.0987Z" fill="#263238"/>
<path d="M254.95 78.4089C255.089 78.5476 255.921 77.9323 257.1 77.9323C258.278 77.9323 259.145 78.5303 259.275 78.3829C259.405 78.2356 259.205 78.0623 258.824 77.785C258.313 77.4357 257.709 77.2485 257.091 77.2477C256.469 77.2445 255.862 77.4387 255.358 77.8023C255.011 78.0796 254.881 78.3396 254.95 78.4089Z" fill="#263238"/>
<path d="M250.661 87.1701C250.041 86.9703 249.397 86.8537 248.746 86.8235C248.442 86.8235 248.156 86.7282 248.104 86.5289C248.085 86.2267 248.154 85.9255 248.304 85.6623L249.17 83.3658C250.409 80.0988 251.311 77.4037 251.172 77.3604C250.191 79.2351 249.363 81.1854 248.694 83.1925C248.39 83.9984 248.113 84.7697 247.827 85.5063C247.638 85.8685 247.582 86.2859 247.671 86.6848C247.715 86.7906 247.783 86.8851 247.868 86.9616C247.954 87.038 248.055 87.0945 248.165 87.1268C248.335 87.1709 248.509 87.197 248.685 87.2048C249.342 87.2789 250.006 87.2672 250.661 87.1701Z" fill="#263238"/>
<path d="M251.042 101.148C251.042 101.148 255.609 101.521 261.311 98.0892C261.311 98.0892 259.509 104.155 250.912 103.289L251.042 101.148Z" fill="#EB996E"/>
<path d="M251.163 90.0125C251.39 89.7317 251.683 89.5123 252.016 89.3745C252.349 89.2367 252.711 89.1849 253.07 89.2239C253.33 89.2489 253.583 89.3254 253.814 89.4489C254.044 89.5724 254.248 89.7404 254.413 89.9432C254.57 90.1413 254.663 90.3824 254.68 90.6346C254.697 90.8869 254.637 91.1383 254.508 91.3557C254.319 91.5689 254.07 91.7201 253.793 91.7896C253.516 91.8592 253.225 91.8439 252.957 91.7457C252.401 91.5617 251.888 91.2669 251.449 90.8791C251.316 90.7861 251.201 90.6684 251.111 90.5325C251.069 90.4666 251.046 90.3899 251.046 90.3115C251.046 90.2331 251.069 90.1564 251.111 90.0905" fill="#EB996E"/>
<path d="M254.136 87.9847C253.945 87.9847 253.945 89.2586 252.845 90.1685C251.744 91.0785 250.383 90.9398 250.375 91.1131C250.366 91.2864 250.678 91.3644 251.241 91.3818C251.992 91.3893 252.721 91.135 253.304 90.6625C253.862 90.2062 254.219 89.5501 254.3 88.834C254.37 88.2967 254.248 87.9761 254.136 87.9847Z" fill="#263238"/>
<path d="M254.422 76.3378C254.534 76.6584 255.713 76.5024 257.1 76.6757C258.486 76.8491 259.613 77.213 259.795 76.927C259.873 76.7884 259.682 76.4851 259.231 76.1818C258.628 75.7996 257.945 75.5596 257.235 75.4801C256.525 75.4005 255.806 75.4834 255.132 75.7225C254.621 75.9305 254.37 76.1818 254.422 76.3378Z" fill="#263238"/>
<path d="M243.771 75.7658C243.979 76.0345 244.794 75.7658 245.773 75.7658C246.752 75.7658 247.576 75.9478 247.766 75.6618C247.853 75.5232 247.766 75.2545 247.359 75.0032C246.873 74.6965 246.306 74.5425 245.731 74.561C245.157 74.5795 244.601 74.7698 244.135 75.1072C243.789 75.3585 243.676 75.6358 243.771 75.7658Z" fill="#263238"/>
<path d="M239.898 75.0812C241.631 77.0397 245.964 75.0812 248.425 73.166C249.972 73.8612 251.729 73.926 253.322 73.3467C254.916 72.7675 256.221 71.5897 256.961 70.0636C258.798 71.7968 261.848 70.7049 262.68 68.3305C263.512 65.956 262.412 62.9663 260.549 61.2504C258.694 59.6644 256.333 58.7945 253.893 58.798C251.078 58.6638 248.285 59.3562 245.858 60.7897C243.431 62.2233 241.477 64.3354 240.236 66.8659C239.074 69.3357 238.624 72.4988 239.898 75.0725" fill="#263238"/>
<path d="M260.115 61.1291C265.063 59.396 270.705 63.7722 271.745 67.3253C273.547 73.4867 272.811 74.3966 274.397 77.2477C275.437 79.1022 278.314 80.714 279.596 82.6119C281.009 84.6224 281.537 88.2967 281.113 90.7231C280.757 92.7683 278.929 98.5918 278.929 98.5918C278.929 98.5918 271.329 99.4584 267.317 99.0251C266.288 98.9743 265.286 98.6771 264.396 98.1585C263.53 97.6039 264.743 95.0734 264.466 94.1115C263.66 91.3818 261.337 90.0732 261.536 87.2308C261.796 83.4611 264.639 82.8979 264.032 79.1195C263.712 77.135 260.332 74.7173 259.777 72.7934C259.223 70.8696 257.074 64.1709 260.081 61.1465" fill="#263238"/>
<path d="M272.759 72.8801C272.629 72.8801 272.715 71.5975 272.464 70.081C272.213 68.5645 271.754 67.3773 271.875 67.3253C272.469 68.1001 272.827 69.0299 272.906 70.003C273.143 70.9555 273.092 71.9568 272.759 72.8801Z" fill="#FCA311"/>
<path d="M272.299 70.7656C272.299 70.7656 272.126 70.8869 271.771 70.9736C271.267 71.0983 270.747 71.148 270.228 71.1209C269.452 71.0816 268.69 70.8933 267.984 70.5663C267.122 70.1614 266.361 69.5693 265.757 68.8331C265.202 68.1091 264.569 67.4493 263.868 66.866C263.282 66.4317 262.625 66.1032 261.926 65.8954C261.263 65.7309 260.588 65.6151 259.907 65.5488C260.084 65.4679 260.277 65.4322 260.471 65.4448C260.986 65.4157 261.503 65.4624 262.004 65.5834C262.759 65.7652 263.473 66.0855 264.11 66.528C264.849 67.1038 265.516 67.7672 266.095 68.5038C267.132 69.7728 268.625 70.5848 270.254 70.7656C270.935 70.8113 271.619 70.8113 272.299 70.7656Z" fill="#455A64"/>
<path d="M285.844 76.7277C285.675 76.8961 285.456 77.0055 285.22 77.0397C284.58 77.173 283.914 77.0843 283.331 76.7884C282.476 76.3478 281.786 75.6426 281.364 74.7779C280.844 73.8506 280.497 72.7414 280.012 71.6842C279.625 70.6737 278.903 69.8265 277.967 69.2837C277.17 68.914 276.267 68.8373 275.419 69.0671C274.629 69.3141 273.92 69.7691 273.365 70.3843C273.434 70.1597 273.559 69.9567 273.729 69.795C274.156 69.3116 274.708 68.9549 275.324 68.7638C276.248 68.4621 277.25 68.5114 278.14 68.9024C279.185 69.4698 279.994 70.3918 280.419 71.5022C280.939 72.6027 281.286 73.6947 281.728 74.5872C282.089 75.3946 282.696 76.0677 283.461 76.5111C283.986 76.8122 284.593 76.9396 285.194 76.875C285.602 76.8144 285.818 76.693 285.844 76.7277Z" fill="#455A64"/>
<path d="M272.317 69.9857C272.317 69.9857 272.1 70.0896 271.693 70.055C271.109 69.9858 270.557 69.7547 270.098 69.3877C269.433 68.8506 268.879 68.1882 268.469 67.4379C268.007 66.5518 267.456 65.7155 266.823 64.9421C266.203 64.2982 265.452 63.7947 264.62 63.4658C263.789 63.1369 262.897 62.9902 262.004 63.0356C261.254 63.1081 260.513 63.2592 259.795 63.4862C259.795 63.4862 259.959 63.3303 260.323 63.1569C260.848 62.9247 261.407 62.7784 261.978 62.7236C262.933 62.6224 263.898 62.7416 264.8 63.0722C265.701 63.4027 266.515 63.9357 267.178 64.6301C267.831 65.4312 268.392 66.3032 268.85 67.2299C269.214 67.9519 269.711 68.5988 270.315 69.1364C270.879 69.6193 271.578 69.9159 272.317 69.9857Z" fill="#455A64"/>
<path d="M274.492 99.4757C274.492 99.4757 274.804 98.9991 275.359 98.1325C276.101 96.9093 276.684 95.5958 277.092 94.2242C277.708 92.2049 277.782 90.0593 277.308 88.0021C277.022 86.7553 276.491 85.5775 275.748 84.5364C275.004 83.4954 274.062 82.6116 272.975 81.9359C271.806 81.2427 270.514 80.7747 269.37 80.0728C268.232 79.411 267.325 78.4158 266.771 77.2217C266.311 76.1653 265.94 75.0725 265.661 73.9547C265.417 73.0009 265.084 72.0724 264.665 71.1816C264.38 70.5371 263.962 69.9605 263.437 69.4899C262.913 69.0193 262.295 68.6654 261.623 68.4518C261.119 68.3252 260.596 68.2929 260.081 68.3565C260.081 68.3565 260.211 68.2872 260.479 68.2352C260.871 68.1556 261.275 68.1556 261.666 68.2352C262.381 68.4283 263.045 68.7749 263.613 69.2508C264.18 69.7267 264.636 70.3206 264.951 70.9909C265.397 71.8929 265.754 72.8362 266.017 73.8073C266.304 74.9007 266.684 75.9676 267.152 76.9964C267.671 78.1098 268.522 79.0358 269.587 79.6481C270.679 80.3241 271.97 80.7834 273.192 81.5113C274.327 82.2232 275.308 83.1551 276.078 84.2519C276.847 85.3488 277.389 86.5885 277.672 87.8981C278.143 90.0257 278.033 92.2408 277.352 94.3108C276.914 95.6981 276.278 97.0145 275.463 98.2191C275.25 98.5472 275.018 98.8626 274.769 99.1637C274.605 99.3804 274.509 99.4844 274.492 99.4757Z" fill="#455A64"/>
<path d="M237.038 101.573C237.038 101.573 236.943 101.504 236.804 101.33C236.604 101.081 236.421 100.817 236.258 100.542C235.652 99.5152 235.257 98.3779 235.097 97.1966C234.826 95.4328 235.066 93.6282 235.79 91.997C236.249 91.0702 236.77 90.1755 237.35 89.3193C237.962 88.4422 238.346 87.4267 238.468 86.3642C238.615 84.1804 237.601 82.1439 237.463 80.1508C237.245 78.3891 237.475 76.601 238.13 74.9512C238.58 73.8501 239.259 72.8575 240.123 72.0395C240.352 71.8156 240.599 71.6099 240.86 71.4242C240.946 71.3507 241.042 71.2894 241.146 71.2422C241.146 71.2422 240.808 71.5629 240.279 72.1608C239.494 73.0075 238.876 73.9956 238.459 75.0726C237.872 76.6788 237.682 78.4032 237.905 80.0988C238.045 81.1054 238.254 82.1013 238.529 83.0799C238.853 84.1579 238.997 85.2825 238.953 86.4075C238.822 87.5377 238.414 88.618 237.766 89.5533C237.191 90.3858 236.67 91.2541 236.206 92.153C235.495 93.708 235.231 95.4305 235.443 97.1272C235.578 98.2752 235.916 99.3902 236.44 100.42C236.795 101.183 237.073 101.53 237.038 101.573Z" fill="#455A64"/>
<path d="M252.914 59.6992C251.815 59.8393 250.729 60.0624 249.664 60.3665C247.122 61.18 244.922 62.8136 243.407 65.0114C241.999 67.2784 241.227 69.8826 241.172 72.5508C241.182 73.6582 241.286 74.7627 241.484 75.8525C241.333 75.5827 241.227 75.2899 241.172 74.9859C240.968 74.1839 240.861 73.3607 240.851 72.5334C240.814 69.779 241.569 67.0718 243.026 64.7341C244.59 62.4486 246.905 60.7836 249.569 60.0286C250.365 59.802 251.185 59.6683 252.013 59.6299C252.315 59.6067 252.619 59.6301 252.914 59.6992Z" fill="#455A64"/>
<path d="M247.073 70.8089C246.955 70.5761 246.882 70.3234 246.856 70.0637C246.727 69.3549 246.695 68.6319 246.761 67.9145C246.855 66.7207 247.192 65.5587 247.751 64.5C248.311 63.4413 249.081 62.5082 250.014 61.7582C250.948 61.0081 252.025 60.457 253.179 60.1387C254.334 59.8204 255.541 59.7416 256.727 59.9072C257.439 59.9956 258.135 60.1792 258.798 60.4532C259.051 60.5352 259.286 60.6646 259.491 60.8345C258.579 60.5473 257.642 60.3442 256.692 60.2279C254.396 59.9869 252.097 60.6632 250.297 62.1095C248.497 63.5557 247.341 65.6547 247.082 67.9492C246.994 68.9003 246.992 69.8573 247.073 70.8089Z" fill="#455A64"/>
<path d="M286.538 193.986L277.17 157.771L280.411 143.602L285.082 117.007C285.082 117.007 280.792 111.14 269.682 110.577L268.937 105.195L249.915 105.862L249.56 110.949C246.736 111.651 244.09 112.939 241.797 114.731C239.504 116.523 237.613 118.777 236.249 121.348L222.739 146.757L185.788 165.25L190.667 176.697C190.667 176.697 227.757 162.641 230.894 161.263C232.982 160.354 235.227 156.506 237.211 152.381C238.693 159.47 240.227 165.085 240.227 165.085L239.906 192.868L286.538 193.986Z" fill="#FCA311"/>
<path d="M269.968 120.473C269.968 120.473 269.483 120.612 268.625 120.872C267.767 121.132 266.528 121.522 265.003 122.042C263.478 122.562 261.675 123.194 259.587 123.688C258.486 123.97 257.351 124.095 256.216 124.061C254.991 123.914 253.81 123.513 252.749 122.882C251.657 122.302 250.652 121.652 249.63 121.149C248.655 120.648 247.625 120.262 246.562 119.997C244.752 119.545 242.876 119.428 241.024 119.65C239.318 119.903 237.651 120.378 236.067 121.062C236.159 120.982 236.261 120.915 236.371 120.863C236.669 120.687 236.979 120.531 237.298 120.395C238.473 119.877 239.711 119.518 240.981 119.329C244.006 118.885 247.095 119.381 249.829 120.75C250.877 121.279 251.891 121.929 252.966 122.484C253.966 123.081 255.078 123.468 256.233 123.619C257.324 123.653 258.414 123.539 259.474 123.281C261.536 122.822 263.356 122.206 264.89 121.738C266.424 121.27 267.681 120.872 268.564 120.698C269.006 120.594 269.353 120.534 269.587 120.499C269.711 120.466 269.841 120.457 269.968 120.473Z" fill="#FAFAFA"/>
<path d="M275.697 138.854C275.697 138.906 274.969 138.724 273.634 138.654C271.757 138.605 269.884 138.86 268.088 139.408C265.429 140.252 262.843 141.313 260.358 142.58C257.297 144.187 254.015 145.329 250.617 145.968C249.713 146.095 248.8 146.144 247.888 146.116C246.995 146.079 246.109 145.948 245.245 145.726C243.631 145.264 242.097 144.56 240.695 143.637C238.017 141.904 235.755 140.171 233.485 139.451C231.742 138.758 229.816 138.669 228.017 139.2C227.372 139.442 226.758 139.759 226.188 140.145C226.311 140.009 226.447 139.887 226.596 139.781C227.012 139.47 227.47 139.22 227.956 139.035C229.791 138.424 231.78 138.464 233.589 139.148C235.929 139.867 238.26 141.627 240.92 143.282C242.288 144.174 243.784 144.852 245.357 145.292C246.191 145.505 247.045 145.63 247.905 145.665C248.792 145.693 249.679 145.644 250.557 145.518C253.909 144.884 257.151 143.769 260.185 142.207C262.69 140.949 265.3 139.908 267.984 139.096C269.818 138.567 271.729 138.359 273.634 138.481C274.148 138.52 274.657 138.599 275.159 138.715C275.342 138.746 275.522 138.792 275.697 138.854Z" fill="#FAFAFA"/>
<path d="M241.016 126.184C241.016 126.184 241.016 126.314 240.929 126.557C240.842 126.799 240.756 127.146 240.6 127.597C240.296 128.463 239.811 129.78 239.187 131.349C238.563 132.917 237.801 134.815 237.116 136.895C236.755 137.999 236.465 139.125 236.249 140.266C235.993 141.476 235.894 142.714 235.955 143.949C236.127 146.358 236.48 148.751 237.012 151.107C237.463 153.291 237.939 155.241 238.338 156.887C238.737 158.534 239.057 159.86 239.256 160.787C239.36 161.246 239.43 161.653 239.473 161.853C239.509 161.977 239.524 162.105 239.516 162.234C239.338 161.777 239.193 161.308 239.083 160.83L238.017 156.991C237.584 155.353 237.073 153.404 236.596 151.22C236.034 148.847 235.666 146.433 235.495 144.001C235.431 142.728 235.536 141.451 235.807 140.205C236.022 139.05 236.312 137.909 236.674 136.791C237.385 134.659 238.191 132.805 238.849 131.254C239.508 129.702 240.036 128.437 240.392 127.562C240.566 127.088 240.774 126.627 241.016 126.184Z" fill="#263238"/>
<path d="M219.854 165.588C219.628 165.619 219.398 165.593 219.186 165.51C218.603 165.327 218.062 165.033 217.592 164.643C216.889 164.069 216.278 163.391 215.781 162.633C215.218 161.673 214.825 160.623 214.619 159.53C214.409 158.481 214.119 157.45 213.753 156.445C213.426 155.645 212.933 154.924 212.306 154.331C211.711 153.799 210.983 153.44 210.2 153.291C210.2 153.291 210.434 153.221 210.867 153.291C211.477 153.412 212.044 153.689 212.514 154.097C213.214 154.691 213.768 155.438 214.134 156.281C214.548 157.298 214.867 158.351 215.087 159.426C215.286 160.472 215.652 161.478 216.171 162.407C216.624 163.148 217.184 163.817 217.834 164.392C218.263 164.789 218.751 165.117 219.282 165.362C219.628 165.51 219.862 165.544 219.854 165.588Z" fill="#FAFAFA"/>
<path d="M198.683 173.664C198.605 173.664 198.683 172.902 198.492 171.689C198.274 170.112 197.851 168.571 197.236 167.104C196.636 165.634 195.843 164.249 194.878 162.988C194.133 162.017 193.561 161.515 193.613 161.454C194.2 161.793 194.716 162.243 195.13 162.78C196.188 164.019 197.039 165.421 197.652 166.931C198.291 168.432 198.68 170.027 198.804 171.654C198.89 172.326 198.849 173.008 198.683 173.664Z" fill="#FAFAFA"/>
<path d="M277.291 157.442C277.291 157.442 276.745 157.442 275.766 157.563C274.379 157.698 273.008 157.956 271.667 158.334C269.934 158.794 267.993 159.513 265.791 160.31C263.409 161.234 260.942 161.922 258.425 162.364C253.827 163.066 249.127 162.662 244.716 161.185C243.387 160.733 242.095 160.18 240.851 159.53C240.409 159.296 240.08 159.097 239.854 158.967C239.629 158.837 239.516 158.724 239.516 158.724C239.992 158.914 240.458 159.128 240.912 159.366C242.176 159.948 243.476 160.452 244.803 160.874C249.191 162.249 253.835 162.605 258.382 161.913C260.871 161.473 263.314 160.803 265.679 159.912C267.88 159.14 269.882 158.438 271.615 158.014C272.975 157.656 274.369 157.444 275.775 157.381C276.155 157.358 276.537 157.358 276.918 157.381C277.045 157.384 277.17 157.405 277.291 157.442Z" fill="#FAFAFA"/>
<g opacity="0.3">
<path opacity="0.3" d="M250.903 110.967C253.407 112.369 256.226 113.111 259.096 113.125C261.965 113.138 264.791 112.423 267.308 111.045C261.808 111.316 256.302 111.336 250.791 111.105" fill="black"/>
</g>
<path d="M269.552 110.464C269.314 110.585 269.061 110.673 268.798 110.724C268.103 110.926 267.393 111.077 266.675 111.175C264.308 111.482 261.917 111.563 259.535 111.417C256.744 111.296 254.24 111.131 252.42 111.123C250.6 111.114 249.474 111.175 249.474 111.123C249.726 111.04 249.988 110.993 250.253 110.984C250.765 110.915 251.501 110.863 252.42 110.828C254.248 110.759 256.753 110.871 259.552 110.993C261.914 111.134 264.284 111.096 266.641 110.88C268.443 110.663 269.535 110.386 269.552 110.464Z" fill="#263238"/>
<path d="M257.888 150.405C258.399 151.419 288.375 175.328 296.971 182.166C297.27 182.404 297.519 182.699 297.704 183.034C297.888 183.369 298.005 183.737 298.047 184.117C298.088 184.497 298.055 184.882 297.948 185.249C297.84 185.616 297.662 185.958 297.422 186.256L277.421 211.084C276.943 211.68 276.248 212.064 275.488 212.15C274.728 212.236 273.965 212.018 273.365 211.543L235.054 181.212C234.746 180.969 234.491 180.666 234.304 180.321C234.117 179.976 234.003 179.596 233.967 179.206C233.931 178.815 233.976 178.421 234.097 178.048C234.218 177.675 234.414 177.33 234.672 177.035L257.888 150.405Z" fill="#263238"/>
<path d="M257.429 146.167C257.957 147.216 290.056 172.798 297.335 178.587C297.717 178.894 297.961 179.34 298.015 179.827C298.068 180.315 297.927 180.803 297.621 181.186L276.312 207.652C276.004 208.033 275.558 208.278 275.071 208.331C274.584 208.385 274.095 208.243 273.712 207.938L233.728 176.238C233.531 176.083 233.368 175.889 233.248 175.669C233.129 175.449 233.055 175.207 233.032 174.957C233.008 174.708 233.035 174.456 233.112 174.218C233.188 173.979 233.312 173.758 233.476 173.569L257.429 146.167Z" fill="#FCA311"/>
<path opacity="0.4" d="M257.429 146.167C257.957 147.225 290.671 173.283 297.535 178.751C297.699 178.882 297.836 179.044 297.937 179.228C298.039 179.412 298.102 179.614 298.125 179.823C298.148 180.032 298.128 180.243 298.069 180.444C298.009 180.645 297.91 180.833 297.777 180.996L276.112 207.86C275.847 208.189 275.462 208.401 275.042 208.448C274.622 208.495 274.2 208.374 273.868 208.111L233.485 176.047C233.314 175.914 233.173 175.747 233.069 175.557C232.965 175.367 232.901 175.157 232.881 174.941C232.861 174.726 232.884 174.508 232.951 174.302C233.018 174.096 233.126 173.905 233.268 173.742L257.429 146.167Z" fill="black"/>
<path d="M260.739 146.635C270.904 155.102 298.384 176.966 298.384 176.966L277.083 203.423C276.466 204.183 275.576 204.67 274.604 204.78C273.631 204.891 272.655 204.615 271.884 204.012L234.915 174.704C234.519 174.39 234.191 173.998 233.95 173.553C233.71 173.108 233.562 172.619 233.516 172.115C233.469 171.611 233.526 171.103 233.681 170.622C233.837 170.14 234.089 169.696 234.421 169.314L253.72 147.225C254.584 146.234 255.8 145.618 257.11 145.508C258.42 145.398 259.722 145.803 260.739 146.635Z" fill="#455A64"/>
<path d="M286.191 167.217L286.728 170.961L296.469 179.323L298.384 176.94L286.191 167.217Z" fill="#FAFAFA"/>
<path d="M257.715 204.168L266.901 196.508L262.438 185.883L256.25 191.499C254.799 191.884 253.318 192.142 251.822 192.27C251.052 192.347 250.275 192.288 249.526 192.097C248.588 191.899 247.681 191.575 246.83 191.135C246.094 190.641 245.149 191.308 245.427 192.053C245.704 192.799 247.697 194.202 250.505 194.653C253.027 195.043 250.175 196.906 248.555 197.894C248.412 197.981 248.307 198.117 248.259 198.277C248.211 198.438 248.224 198.61 248.295 198.761C249.136 200.667 252.446 206.915 257.715 204.168Z" fill="#FFBE9D"/>
<path d="M272.291 128.948C271.606 119.416 280.454 109.745 285.619 117.761C291.286 126.548 303.705 147.225 306.764 161.263C308.194 167.806 268.972 199.003 266.554 200.927C266.485 200.988 265.852 200.121 265.8 200.061L256.103 190.008C256.06 189.948 258.382 187.573 258.443 187.512L286.061 160.458C286.08 160.431 286.09 160.399 286.09 160.367C286.09 160.334 286.08 160.302 286.061 160.276C285.134 158.586 272.941 136.34 272.291 129.174V128.948Z" fill="#FCA311"/>
<path d="M294.112 160.276C294.051 160.449 292.222 159.868 289.891 159.816C287.56 159.764 285.706 160.206 285.654 160.024C285.602 159.842 287.465 159.106 289.917 159.158C292.37 159.21 294.112 160.128 294.112 160.276Z" fill="#263238"/>
<path d="M292.378 163.326C292.231 163.447 291.113 162.208 289.319 161.298C287.525 160.388 285.853 160.163 285.896 159.972C285.94 159.782 287.69 159.738 289.605 160.743C291.52 161.749 292.508 163.248 292.378 163.326Z" fill="#263238"/>
<path d="M286.061 160.458C285.941 160.299 285.839 160.128 285.758 159.946L284.969 158.456L282.161 152.936C279.804 148.213 276.589 141.765 273.045 134.642C271.188 131.328 270.076 127.649 269.786 123.861C269.544 120.395 270.549 117.111 272.386 115.196C273.209 114.314 274.24 113.652 275.385 113.272C276.242 112.98 277.151 112.871 278.054 112.951C278.621 113 279.177 113.14 279.7 113.367C279.882 113.445 280.003 113.532 280.09 113.575C280.177 113.618 280.22 113.653 280.211 113.662C279.524 113.363 278.792 113.181 278.045 113.124C277.161 113.071 276.275 113.204 275.445 113.514C274.353 113.903 273.374 114.554 272.594 115.412C270.861 117.31 269.89 120.473 270.15 123.879C270.483 127.6 271.606 131.207 273.443 134.46C276.953 141.601 280.125 148.074 282.447 152.814C283.565 155.137 284.475 157.026 285.125 158.395L285.836 159.929C285.924 160.099 285.999 160.276 286.061 160.458Z" fill="#263238"/>
<g opacity="0.3">
<path opacity="0.3" d="M270.263 123.593C269.258 132.042 268.53 140.587 269.31 149.053C269.726 153.516 274.449 159.106 278.166 161.61L277.17 157.771C277.716 155.284 279.535 147.424 279.535 147.424C279.535 147.424 276.147 140.717 274.795 138.264C272.196 133.779 270.646 128.763 270.263 123.593Z" fill="black"/>
</g>
<path d="M303.999 152.858C303.999 152.858 303.809 153.074 303.401 153.412C303.202 153.577 302.942 153.767 302.63 153.975C302.318 154.183 301.971 154.426 301.564 154.66C300.616 155.219 299.625 155.703 298.6 156.107C297.345 156.599 296.053 156.99 294.735 157.277C293.417 157.554 292.078 157.722 290.732 157.78C289.629 157.822 288.524 157.77 287.43 157.624C287.01 157.574 286.593 157.499 286.182 157.398C285.871 157.343 285.564 157.265 285.264 157.164C284.995 157.11 284.737 157.01 284.501 156.87C284.501 156.792 285.628 157.13 287.473 157.303C288.551 157.403 289.634 157.427 290.714 157.372C292.033 157.28 293.345 157.101 294.64 156.835C295.935 156.551 297.209 156.177 298.453 155.717C299.465 155.335 300.452 154.889 301.408 154.383C303.037 153.525 303.947 152.797 303.999 152.858Z" fill="#FAFAFA"/>
<path d="M287.898 181.897C287.543 181.107 287.254 180.29 287.031 179.453C286.423 177.473 285.661 175.543 284.752 173.682C284.243 172.667 283.643 171.701 282.959 170.796C282.4 170.064 281.75 169.406 281.026 168.837C279.778 167.875 278.842 167.503 278.886 167.425C279.119 167.457 279.345 167.531 279.553 167.642C280.138 167.897 280.695 168.21 281.217 168.577C281.993 169.133 282.69 169.792 283.288 170.536C284.007 171.449 284.632 172.433 285.151 173.474C286.08 175.357 286.812 177.332 287.335 179.366C287.607 180.189 287.796 181.037 287.898 181.897Z" fill="#FAFAFA"/>
<path d="M277.646 191.473C276.853 191.29 276.089 190.999 275.376 190.606C273.614 189.761 271.975 188.679 270.506 187.391C269.036 186.101 267.745 184.621 266.667 182.989C266.186 182.336 265.807 181.614 265.54 180.848C265.601 180.848 266.06 181.611 266.935 182.807C269.189 185.932 272.126 188.501 275.523 190.32C276.78 191.048 277.646 191.403 277.646 191.473Z" fill="#FAFAFA"/>
<path d="M287.369 120.594C287.165 120.735 286.935 120.835 286.694 120.889C286.057 121.086 285.405 121.225 284.744 121.305C283.071 121.556 280.731 121.409 278.218 121.548C277.038 121.598 275.87 121.817 274.752 122.198C273.848 122.516 273.011 122.997 272.282 123.619C271.629 124.22 271.082 124.926 270.662 125.707C270.678 125.46 270.752 125.219 270.878 125.005C271.167 124.395 271.57 123.845 272.065 123.385C272.799 122.696 273.662 122.16 274.605 121.808C275.753 121.396 276.956 121.157 278.175 121.097C280.775 120.958 283.054 121.149 284.7 120.984C286.347 120.82 287.343 120.508 287.369 120.594Z" fill="#FAFAFA"/>
<path d="M296.321 136.722C296.257 136.985 296.126 137.226 295.94 137.424C295.477 137.985 294.881 138.423 294.207 138.698C293.2 139.069 292.142 139.282 291.07 139.33C289.791 139.423 288.518 139.588 287.257 139.824C284.967 140.274 282.735 140.977 280.601 141.921C278.964 142.649 278.002 143.212 278.002 143.152C278.188 142.965 278.401 142.807 278.634 142.684C279.238 142.3 279.863 141.95 280.506 141.635C282.628 140.587 284.881 139.829 287.205 139.382C289.926 138.793 292.491 139.061 294.138 138.394C295.01 138.057 295.768 137.476 296.321 136.722Z" fill="#FAFAFA"/>
<path d="M82.1526 50.5654C83.9253 50.7013 85.6521 51.1943 87.2292 52.0149C88.8064 52.8355 90.2012 53.9667 91.3298 55.3403C93.5595 58.1006 95.1277 61.3347 95.914 64.7948C97.6472 71.4069 96.4773 79.1975 94.5362 85.7489C87.4041 83.1492 83.0625 75.4712 81.104 71.4502C78.0103 65.0808 76.2771 51.7093 82.1959 50.5654" fill="#FCA311"/>
<path d="M104.71 93.8429C103.654 92.1686 103.059 90.2458 102.983 88.2681C102.907 86.2904 103.353 84.3276 104.277 82.5772C105.235 80.845 106.529 79.3208 108.082 78.0934C109.635 76.8659 111.417 75.9598 113.324 75.4278C115.057 74.9079 117.102 74.6999 118.61 75.7312C119.284 76.2566 119.807 76.9512 120.125 77.7443C120.443 78.5374 120.545 79.4006 120.421 80.2461C120.139 81.9377 119.416 83.525 118.324 84.8477C114.806 89.5272 110.525 93.4096 104.71 93.8429Z" fill="#FCA311"/>
<g opacity="0.3">
<path opacity="0.3" d="M104.71 93.8429C103.654 92.1686 103.059 90.2458 102.983 88.2681C102.907 86.2904 103.353 84.3276 104.277 82.5772C105.235 80.845 106.529 79.3208 108.082 78.0934C109.635 76.8659 111.417 75.9598 113.324 75.4278C115.057 74.9079 117.102 74.6999 118.61 75.7312C119.284 76.2566 119.807 76.9512 120.125 77.7443C120.443 78.5374 120.545 79.4006 120.421 80.2461C120.139 81.9377 119.416 83.525 118.324 84.8477C114.806 89.5272 110.525 93.4096 104.71 93.8429Z" fill="white"/>
</g>
<path d="M97.1013 100.854C94.8804 97.3198 91.8497 94.3659 88.26 92.2365C84.6703 90.1071 80.625 88.8635 76.4591 88.6087C74.336 88.5047 71.8055 88.912 70.9043 90.8272C70.003 92.7423 71.3029 94.9695 72.7761 96.5033C75.9062 99.6398 79.8944 101.78 84.2385 102.654C88.5825 103.529 93.0881 103.098 97.1879 101.417" fill="#FCA311"/>
<g opacity="0.3">
<path opacity="0.3" d="M97.1013 100.854C94.8804 97.3198 91.8497 94.3659 88.26 92.2365C84.6703 90.1071 80.625 88.8635 76.4591 88.6087C74.336 88.5047 71.8055 88.912 70.9043 90.8272C70.003 92.7423 71.3029 94.9695 72.7761 96.5033C75.9062 99.6398 79.8944 101.78 84.2385 102.654C88.5825 103.529 93.0881 103.098 97.1879 101.417" fill="white"/>
</g>
<path d="M104.771 116.547C104.629 116.09 104.531 115.62 104.476 115.144C104.32 114.234 104.103 112.916 103.887 111.287C103.234 107.028 103.138 102.702 103.601 98.4184C104.1 94.1009 105.746 89.9957 108.367 86.5288C109.172 85.4957 110.101 84.5645 111.131 83.7558C111.409 83.5332 111.699 83.3249 111.998 83.1318C112.098 83.0552 112.209 82.9939 112.327 82.9498C110.957 84.0675 109.714 85.3316 108.618 86.7195C106.121 90.1883 104.547 94.2348 104.043 98.4791C103.596 102.729 103.652 107.016 104.207 111.253C104.389 112.821 104.537 114.13 104.649 115.118C104.724 115.591 104.764 116.069 104.771 116.547Z" fill="#263238"/>
<path d="M84.3971 60.6352C84.5023 60.8104 84.5949 60.9929 84.6744 61.1811C84.8564 61.5884 85.099 62.1171 85.3936 62.7843C86.0089 64.1709 86.8755 66.1987 87.9327 68.7118C90.0386 73.7293 92.855 80.7054 95.7927 88.4787C98.7304 96.252 101.235 103.349 102.977 108.514C103.843 111.114 104.537 113.185 104.996 114.632C105.204 115.326 105.377 115.889 105.507 116.314C105.582 116.503 105.634 116.701 105.663 116.903C105.563 116.724 105.482 116.535 105.421 116.34C105.273 115.924 105.074 115.378 104.823 114.693C104.303 113.211 103.566 111.149 102.673 108.627C100.854 103.497 98.3405 96.4166 95.3767 88.652C92.413 80.8874 89.6659 73.92 87.6381 68.8418L85.229 62.8623C84.969 62.1864 84.7524 61.6404 84.5877 61.2245C84.5023 61.0358 84.4383 60.8381 84.3971 60.6352Z" fill="#263238"/>
<path d="M79.8388 94.0855C80.2965 94.0765 80.7543 94.1025 81.208 94.1635C81.7409 94.2042 82.2707 94.2794 82.7939 94.3888C83.4981 94.5024 84.1954 94.6558 84.8823 94.8481L86.0782 95.1774C86.4942 95.2987 86.9448 95.472 87.3521 95.6193C88.2811 95.9599 89.1922 96.3475 90.0819 96.7806C94.1861 98.7791 97.7765 101.694 100.576 105.299C101.192 106.166 101.798 106.937 102.309 107.743C102.552 108.142 102.803 108.514 103.003 108.895L103.575 110.005C103.956 110.698 104.199 111.374 104.441 111.946C104.654 112.439 104.833 112.946 104.979 113.462C105.134 113.894 105.256 114.337 105.343 114.788C105.239 114.788 104.736 112.925 103.28 110.152C103.089 109.805 102.899 109.441 102.691 109.069C102.483 108.696 102.231 108.341 101.98 107.951C101.444 107.124 100.865 106.326 100.247 105.559C97.45 102.038 93.919 99.1697 89.8999 97.1532C88.964 96.7199 88.0887 96.2866 87.2135 95.9746C86.7888 95.8186 86.3469 95.6367 85.9742 95.5067L84.7957 95.1514C81.7973 94.2935 79.8215 94.1895 79.8388 94.0855Z" fill="#263238"/>
<path d="M91.1998 110.143H116.877V125.17C116.877 127.995 115.755 130.704 113.757 132.701C111.76 134.698 109.051 135.82 106.226 135.82H101.85C99.0255 135.82 96.3166 134.698 94.3192 132.701C92.3219 130.704 91.1998 127.995 91.1998 125.17V110.143Z" fill="#FCA311"/>
<path opacity="0.3" d="M91.1998 110.143H116.877V125.17C116.877 127.995 115.755 130.704 113.757 132.701C111.76 134.698 109.051 135.82 106.226 135.82H101.85C99.0255 135.82 96.3166 134.698 94.3192 132.701C92.3219 130.704 91.1998 127.995 91.1998 125.17V110.143Z" fill="black"/>
<path d="M108.549 110.195C108.493 110.464 108.393 110.721 108.254 110.958C107.928 111.625 107.545 112.262 107.11 112.864C105.681 114.874 103.788 116.51 101.591 117.631C99.3941 118.752 96.959 119.325 94.4928 119.303C93.7521 119.303 93.0129 119.239 92.283 119.113C92.0106 119.086 91.7443 119.016 91.4944 118.905C91.4944 118.827 92.6383 119.052 94.4842 118.991C96.8859 118.92 99.2417 118.316 101.382 117.224C103.522 116.131 105.393 114.577 106.859 112.674C107.986 111.235 108.471 110.195 108.549 110.195Z" fill="#FAFAFA"/>
<path d="M116.634 127.527C116.338 127.519 116.044 127.461 115.768 127.354C115.029 127.118 114.319 126.798 113.653 126.401C111.409 125.085 109.709 123.012 108.859 120.554C108.009 118.096 108.065 115.415 109.017 112.994C109.299 112.272 109.659 111.584 110.091 110.941C110.241 110.699 110.425 110.48 110.637 110.291C110.134 111.198 109.694 112.139 109.32 113.107C108.484 115.464 108.475 118.034 109.294 120.397C110.113 122.759 111.711 124.772 113.826 126.106C114.728 126.644 115.667 127.119 116.634 127.527Z" fill="#FAFAFA"/>
<path d="M110.057 135.118C110.033 133.836 109.852 132.561 109.519 131.323C109.102 130.003 108.453 128.768 107.604 127.674C106.561 126.342 105.273 125.221 103.809 124.373C101.101 122.857 97.9786 122.25 94.9001 122.64C93.627 122.851 92.368 123.14 91.1305 123.506C91.4309 123.326 91.7507 123.181 92.0837 123.073C92.9809 122.742 93.9104 122.507 94.8568 122.371C98.013 121.865 101.248 122.442 104.034 124.009C105.552 124.893 106.878 126.071 107.934 127.475C108.796 128.617 109.437 129.91 109.823 131.288C110.079 132.213 110.199 133.171 110.178 134.131C110.178 134.464 110.138 134.795 110.057 135.118Z" fill="#FAFAFA"/>
<path d="M113.714 135.82H32.887V370.432H113.714V135.82Z" fill="#263238"/>
<path d="M157.104 135.82H68.6078V370.432H157.104V135.82Z" fill="#455A64"/>
<path d="M153.152 202.409H74.284V250.843H153.152V202.409Z" fill="#455A64"/>
<path d="M100.862 316.781H127.874V318.003C127.88 318.253 127.835 318.502 127.743 318.734C127.651 318.966 127.513 319.177 127.338 319.355C127.162 319.533 126.953 319.674 126.722 319.769C126.491 319.864 126.243 319.912 125.993 319.91H102.734C102.24 319.91 101.766 319.714 101.417 319.364C101.067 319.015 100.871 318.541 100.871 318.047V316.825L100.862 316.781Z" fill="#263238"/>
<path d="M152.979 316.781C152.979 316.781 152.979 317.067 152.979 317.648C152.979 318.229 152.979 319.069 152.979 320.161C152.979 322.397 152.979 325.655 152.979 329.841C152.979 338.273 153.04 350.396 153.074 365.241V365.414H152.901L74.0413 365.466H73.7727V365.241C73.7727 348.1 73.7727 331.747 73.7727 316.868V316.66H73.9807L130.881 316.712H147.121H151.454H152.554H152.918H152.528H151.402H147.069L130.777 316.781L74.0153 316.929L74.2233 316.721C74.2233 331.6 74.2233 347.918 74.2233 365.094L73.998 364.868L152.858 364.912L152.676 365.094C152.676 350.292 152.754 338.23 152.771 329.806C152.771 325.603 152.771 322.328 152.814 320.083C152.814 318.974 152.814 318.125 152.814 317.535C152.962 317.085 152.979 316.781 152.979 316.781Z" fill="#263238"/>
<path d="M126.825 328.61H103.341V334.954H126.825V328.61Z" fill="#E0E0E0"/>
<path d="M153.152 256.32H74.284V304.753H153.152V256.32Z" fill="#455A64"/>
<path d="M100.758 262.602H127.77V263.824C127.77 264.318 127.573 264.792 127.224 265.142C126.875 265.491 126.401 265.687 125.907 265.687H102.595C102.101 265.687 101.627 265.491 101.278 265.142C100.929 264.792 100.732 264.318 100.732 263.824V262.602H100.758Z" fill="#263238"/>
<path d="M153.724 262.602C153.724 262.602 153.724 262.888 153.724 263.469C153.724 264.05 153.724 264.89 153.724 265.982C153.724 268.218 153.724 271.476 153.767 275.662C153.767 284.094 153.828 296.217 153.863 311.062V311.235H153.724L74.8646 311.244H74.5959V311.019C74.5959 293.878 74.5959 277.525 74.5959 262.646V262.438H74.8039L131.704 262.49L147.944 262.533H152.277H153.378H153.724H153.334H152.208H147.875L131.583 262.602L74.8213 262.758L75.0292 262.542C75.0292 277.421 75.0292 293.739 75.0292 310.915L74.8039 310.689L153.663 310.733L153.482 310.915C153.525 296.113 153.56 284.05 153.577 275.627C153.577 271.424 153.577 268.149 153.577 265.904C153.577 264.795 153.577 263.946 153.577 263.356C153.724 262.914 153.724 262.602 153.724 262.602Z" fill="#263238"/>
<path d="M126.011 274.059H102.526V280.402H126.011V274.059Z" fill="#E0E0E0"/>
<path d="M101.044 142.259H128.056V143.481C128.056 143.975 127.86 144.449 127.51 144.799C127.161 145.148 126.687 145.344 126.193 145.344H102.907C102.413 145.344 101.939 145.148 101.59 144.799C101.241 144.449 101.044 143.975 101.044 143.481V142.259Z" fill="#263238"/>
<path d="M153.152 142.259C153.152 142.259 153.152 142.537 153.152 143.126C153.152 143.715 153.152 144.547 153.152 145.648C153.152 147.875 153.152 151.142 153.196 155.327C153.196 163.751 153.248 175.874 153.291 190.719V190.892H153.109L74.2493 190.935H73.998V190.71C73.998 173.569 73.998 157.225 73.998 142.346V142.138H74.206L131.098 142.19H147.346H151.679H152.78H153.144H152.754H151.636H147.303L131.02 142.259L74.258 142.415L74.4659 142.207C74.4659 157.087 74.4659 173.404 74.4659 190.572L74.2406 190.346L153.1 190.398L152.927 190.572C152.927 175.77 152.996 163.707 153.022 155.284C153.022 151.09 153.022 147.814 153.066 145.57C153.066 144.46 153.066 143.611 153.066 143.022C153.066 142.433 153.152 142.259 153.152 142.259Z" fill="#263238"/>
<path d="M125.872 152.537H102.387V158.88H125.872V152.537Z" fill="#E0E0E0"/>
<path d="M74.5353 218.112V199.913C74.5353 199.159 74.8347 198.437 75.3678 197.903C75.9009 197.37 76.6238 197.071 77.3777 197.071H125.855C126.597 197.071 127.309 197.366 127.834 197.891C128.359 198.416 128.654 199.128 128.654 199.87V218.068L74.5353 218.112Z" fill="#FCA311"/>
<path opacity="0.3" d="M74.5353 218.112V199.913C74.5353 199.159 74.8347 198.437 75.3678 197.903C75.9009 197.37 76.6238 197.071 77.3777 197.071H125.855C126.597 197.071 127.309 197.366 127.834 197.891C128.359 198.416 128.654 199.128 128.654 199.87V218.068L74.5353 218.112Z" fill="black"/>
<path d="M79.4922 218.112V202.114C79.4921 202.039 79.5207 201.967 79.5723 201.912C79.6238 201.857 79.6944 201.824 79.7695 201.82H128.654V218.112H79.4922Z" fill="#FAFAFA"/>
<path d="M139.668 198.752L138.273 218.112H85.6623L87.0661 200.147C87.2048 198.414 88.4007 197.097 89.8306 197.106L115.421 197.244C115.377 196.733 115.533 196.224 115.856 195.824C116.179 195.425 116.644 195.167 117.154 195.104H136.912C138.533 195.121 139.807 196.794 139.668 198.752Z" fill="#FCA311"/>
<path d="M96.0787 216.231V198.033C96.0787 197.659 96.1525 197.289 96.2959 196.943C96.4392 196.598 96.6494 196.284 96.9143 196.02C97.1791 195.756 97.4935 195.547 97.8394 195.404C98.1852 195.262 98.5558 195.189 98.9298 195.19H147.407C148.149 195.19 148.861 195.485 149.386 196.01C149.911 196.535 150.206 197.247 150.206 197.99V216.24L96.0787 216.231Z" fill="#FCA311"/>
<path opacity="0.3" d="M96.0787 216.231V198.033C96.0787 197.659 96.1525 197.289 96.2959 196.943C96.4392 196.598 96.6494 196.284 96.9143 196.02C97.1791 195.756 97.4935 195.547 97.8394 195.404C98.1852 195.262 98.5558 195.189 98.9298 195.19H147.407C148.149 195.19 148.861 195.485 149.386 196.01C149.911 196.535 150.206 197.247 150.206 197.99V216.24L96.0787 216.231Z" fill="black"/>
<path d="M101.044 216.231V200.225C101.043 200.188 101.049 200.151 101.063 200.117C101.076 200.082 101.096 200.05 101.122 200.024C101.148 199.997 101.179 199.976 101.213 199.961C101.248 199.947 101.284 199.939 101.322 199.939H150.206V216.231H101.044Z" fill="#FAFAFA"/>
<path d="M161.22 196.854L159.79 216.231H107.206L108.662 198.258C108.659 197.498 108.941 196.765 109.453 196.203C109.965 195.641 110.669 195.292 111.426 195.225L137.016 195.355C136.972 194.843 137.128 194.334 137.451 193.935C137.774 193.536 138.24 193.278 138.75 193.215H158.482C160.085 193.215 161.359 194.904 161.22 196.854Z" fill="#FCA311"/>
<path d="M126.063 217.28V199.081C126.061 198.707 126.134 198.337 126.277 197.991C126.419 197.645 126.628 197.331 126.892 197.066C127.156 196.801 127.47 196.591 127.815 196.448C128.161 196.304 128.531 196.23 128.905 196.23H177.382C177.75 196.23 178.115 196.303 178.455 196.444C178.795 196.585 179.104 196.792 179.364 197.053C179.624 197.314 179.83 197.624 179.971 197.964C180.111 198.305 180.182 198.67 180.181 199.038V217.28H126.063Z" fill="#FCA311"/>
<path opacity="0.3" d="M126.063 217.28V199.081C126.061 198.707 126.134 198.337 126.277 197.991C126.419 197.645 126.628 197.331 126.892 197.066C127.156 196.801 127.47 196.591 127.815 196.448C128.161 196.304 128.531 196.23 128.905 196.23H177.382C177.75 196.23 178.115 196.303 178.455 196.444C178.795 196.585 179.104 196.792 179.364 197.053C179.624 197.314 179.83 197.624 179.971 197.964C180.111 198.305 180.182 198.67 180.181 199.038V217.28H126.063Z" fill="black"/>
<path d="M131.028 217.28V201.283C131.026 201.208 131.053 201.136 131.103 201.081C131.153 201.026 131.223 200.992 131.297 200.988H180.181V217.28H131.028Z" fill="#FAFAFA"/>
<path d="M183.076 196.82H133.489V225.885H183.076V196.82Z" fill="#E0E0E0"/>
<path d="M187.157 183.916H137.19V214.905H187.157V183.916Z" fill="#F5F5F5"/>
<path d="M146.297 212.947C146.167 212.947 146.072 207.591 146.072 200.988C146.072 194.384 146.167 189.029 146.297 189.029C146.427 189.029 146.523 194.384 146.523 200.988C146.523 207.591 146.419 212.947 146.297 212.947Z" fill="#263238"/>
<path d="M149.842 212.947C149.721 212.947 149.617 207.591 149.617 200.988C149.617 194.384 149.721 189.029 149.842 189.029C149.963 189.029 150.067 194.384 150.067 200.988C150.067 207.591 149.972 212.947 149.842 212.947Z" fill="#263238"/>
<path d="M153.724 212.947C153.594 212.947 153.499 207.591 153.499 200.988C153.499 194.384 153.594 189.029 153.724 189.029C153.854 189.029 153.949 194.384 153.949 200.988C153.949 207.591 153.837 212.947 153.724 212.947Z" fill="#263238"/>
<path d="M157.58 212.947C157.459 212.947 157.355 207.591 157.355 200.988C157.355 194.384 157.459 189.029 157.58 189.029C157.702 189.029 157.806 194.384 157.806 200.988C157.806 207.591 157.702 212.947 157.58 212.947Z" fill="#263238"/>
<path d="M161.445 212.947C161.324 212.947 161.22 207.591 161.22 200.988C161.22 194.384 161.324 189.029 161.445 189.029C161.567 189.029 161.671 194.384 161.671 200.988C161.671 207.591 161.575 212.947 161.445 212.947Z" fill="#263238"/>
<path d="M165.319 212.947C165.189 212.947 165.094 207.591 165.094 200.988C165.094 194.384 165.189 189.029 165.319 189.029C165.449 189.029 165.544 194.384 165.544 200.988C165.544 207.591 165.44 212.947 165.319 212.947Z" fill="#263238"/>
<path d="M169.184 212.947C169.063 212.947 168.959 207.591 168.959 200.988C168.959 194.384 169.063 189.029 169.184 189.029C169.305 189.029 169.409 194.384 169.409 200.988C169.409 207.591 169.323 212.947 169.184 212.947Z" fill="#263238"/>
<path d="M173.049 212.947C172.928 212.947 172.824 207.591 172.824 200.988C172.824 194.384 172.928 189.029 173.049 189.029C173.17 189.029 173.274 194.384 173.274 200.988C173.274 207.591 173.179 212.947 173.049 212.947Z" fill="#263238"/>
<path d="M176.923 212.947C176.793 212.947 176.689 207.591 176.689 200.988C176.689 194.384 176.793 189.029 176.923 189.029C177.053 189.029 177.148 194.384 177.148 200.988C177.148 207.591 177.044 212.947 176.923 212.947Z" fill="#263238"/>
<path d="M180.788 212.947C180.658 212.947 180.562 207.591 180.562 200.988C180.562 194.384 180.658 189.029 180.788 189.029C180.918 189.029 181.013 194.384 181.013 200.988C181.013 207.591 180.909 212.947 180.788 212.947Z" fill="#263238"/>
<path d="M191.195 201.343L189.809 217.28H137.19L138.602 202.487C138.667 201.801 138.985 201.165 139.495 200.701C140.005 200.238 140.669 199.982 141.358 199.983L166.957 200.095C166.957 199.636 167.14 199.195 167.465 198.87C167.79 198.545 168.23 198.362 168.69 198.362H188.422C188.805 198.358 189.185 198.435 189.537 198.586C189.889 198.737 190.206 198.96 190.467 199.241C190.728 199.521 190.927 199.853 191.053 200.215C191.178 200.577 191.227 200.961 191.195 201.343Z" fill="#FCA311"/>
<path d="M152.953 208.423H74.0847V256.857H152.953V208.423Z" fill="#263238"/>
<path d="M200.676 208.423H121.808V256.857H200.676V208.423Z" fill="#455A64"/>
<path d="M200.676 256.649C200.676 256.649 200.676 256.346 200.676 255.782C200.676 255.219 200.676 254.352 200.676 253.252C200.676 251.033 200.676 247.784 200.676 243.615C200.676 235.279 200.615 223.285 200.581 208.588L200.754 208.77L121.894 208.813L122.12 208.588C122.12 225.625 122.12 241.874 122.12 256.658L121.912 256.45L178.639 256.554L194.922 256.606H199.255H200.373H200.763H200.399H199.298H194.965L178.725 256.666L121.86 256.762H121.652V256.649C121.652 241.865 121.652 225.616 121.652 208.579V208.354H121.886L200.745 208.406H200.927V208.579C200.927 223.311 200.849 235.348 200.832 243.711C200.832 247.862 200.832 251.103 200.789 253.313C200.789 254.404 200.789 255.236 200.789 255.808C200.693 256.346 200.676 256.649 200.676 256.649Z" fill="#263238"/>
<path d="M150.188 208.423H177.2V209.489C177.2 209.983 177.004 210.457 176.654 210.807C176.305 211.156 175.831 211.352 175.337 211.352H152.052C151.558 211.352 151.084 211.156 150.734 210.807C150.385 210.457 150.188 209.983 150.188 209.489V208.423Z" fill="#263238"/>
<path d="M175.943 219.282H152.459V225.625H175.943V219.282Z" fill="#E0E0E0"/>
<path d="M174.964 178.24C174.23 181.267 173.792 184.358 173.656 187.469C173.656 187.868 173.656 188.336 174.002 188.552C174.349 188.769 174.869 188.171 175.155 187.816C175.71 187.183 177.755 183.639 177.755 183.639C179.191 183.508 180.529 182.853 181.515 181.801C182.5 180.748 183.065 179.37 183.102 177.928" fill="#FFBE9D"/>
<path d="M183.075 177.928C183.105 178.141 183.105 178.357 183.075 178.569C183.021 179.167 182.872 179.752 182.634 180.302C182.259 181.154 181.689 181.905 180.97 182.495C180.038 183.235 178.919 183.703 177.737 183.847L177.893 183.743C177.243 184.869 176.524 186.1 175.709 187.348C175.58 187.53 175.467 187.712 175.311 187.902C175.155 188.093 175.042 188.232 174.878 188.405C174.71 188.607 174.482 188.75 174.228 188.812C174.077 188.827 173.926 188.793 173.796 188.715C173.666 188.637 173.566 188.519 173.508 188.379C173.366 187.955 173.33 187.503 173.404 187.062C173.404 186.663 173.456 186.273 173.491 185.892C173.604 184.537 173.786 183.19 174.037 181.854C174.245 180.718 174.462 179.808 174.635 179.185C174.698 178.855 174.803 178.535 174.947 178.231C174.938 178.565 174.889 178.897 174.8 179.219C174.687 179.86 174.514 180.77 174.349 181.914C174.184 183.058 174.011 184.41 173.907 185.918L173.829 187.088C173.773 187.453 173.799 187.826 173.907 188.18C173.968 188.318 174.089 188.396 174.158 188.379C174.313 188.318 174.449 188.22 174.557 188.093L174.964 187.608C175.094 187.444 175.216 187.273 175.328 187.096C176.134 185.866 176.862 184.635 177.529 183.526L177.581 183.431H177.685C178.796 183.312 179.854 182.892 180.744 182.218C181.443 181.682 182.006 180.99 182.391 180.198C182.71 179.472 182.94 178.71 183.075 177.928Z" fill="#EB996E"/>
</svg>
